<?xml version="1.0" encoding="UTF-8" standalone="no"?>
<!DOCTYPE svg PUBLIC "-//W3C//DTD SVG 1.1//EN" "http://www.w3.org/Graphics/SVG/1.1/DTD/svg11.dtd">
<svg version="1.1" xmlns="http://www.w3.org/2000/svg" xmlns:xlink="http://www.w3.org/1999/xlink" preserveAspectRatio="xMidYMid meet" viewBox="149.1923076923077 132.20512820512826 262.1282051282051 207.64102564102566" width="255.13" height="200.64"><defs><path d="M282.79 136.04L286.87 136.45L290.91 137.02L294.89 137.74L298.81 138.62L302.68 139.65L306.49 140.82L310.22 142.14L313.89 143.59L317.49 145.19L321.02 146.91L324.46 148.76L327.82 150.74L331.1 152.85L334.29 155.07L337.38 157.41L340.39 159.87L343.11 162.27L344.36 162.16L346.75 162.03L349.17 161.99L351.58 162.03L353.97 162.16L356.34 162.37L358.68 162.66L360.98 163.03L363.25 163.48L365.49 164L367.7 164.6L369.86 165.28L371.99 166.02L374.07 166.83L376.11 167.71L378.11 168.66L380.05 169.67L381.95 170.75L383.8 171.89L385.59 173.08L387.33 174.34L389.01 175.65L390.63 177.01L392.19 178.43L393.69 179.9L395.13 181.42L396.5 182.99L397.8 184.61L399.03 186.26L400.19 187.97L401.27 189.71L402.28 191.49L403.21 193.32L404.06 195.17L404.83 197.07L405.51 198.99L406.11 200.95L406.63 202.94L407.05 204.96L407.39 207L407.63 209.07L407.77 211.16L407.82 213.27L407.77 215.38L407.63 217.47L407.39 219.54L407.05 221.58L406.63 223.6L406.11 225.59L405.51 227.54L404.83 229.47L404.06 231.36L403.21 233.22L402.28 235.04L401.27 236.83L400.19 238.57L399.03 240.27L397.8 241.93L396.5 243.55L395.13 245.12L393.69 246.64L392.19 248.11L390.63 249.52L389.01 250.89L387.33 252.2L385.59 253.45L383.8 254.65L381.95 255.79L380.05 256.86L378.11 257.88L376.11 258.82L374.07 259.71L372.8 260.2L371.79 263.95L370.6 267.72L369.27 271.42L367.8 275.06L366.2 278.62L364.46 282.11L362.59 285.52L360.59 288.85L358.46 292.1L356.22 295.26L353.85 298.32L351.38 301.3L348.79 304.17L346.09 306.95L343.29 309.62L340.39 312.18L337.38 314.64L334.29 316.98L331.1 319.2L327.82 321.31L324.46 323.29L321.02 325.14L317.49 326.87L313.89 328.46L310.22 329.91L306.49 331.23L302.68 332.4L298.81 333.43L294.89 334.31L290.91 335.03L286.87 335.6L282.79 336.01L278.66 336.26L274.49 336.35L270.32 336.26L266.19 336.01L262.1 335.6L258.07 335.03L254.09 334.31L250.16 333.43L246.29 332.4L242.49 331.23L238.75 329.91L235.08 328.46L231.48 326.87L227.96 325.14L224.51 323.29L221.15 321.31L217.88 319.2L214.69 316.98L211.59 314.64L208.59 312.18L205.69 309.62L204.12 308.13L203.33 308.14L201.25 308.1L199.18 307.98L197.14 307.79L195.12 307.52L193.13 307.18L191.17 306.76L189.24 306.28L187.33 305.72L185.46 305.1L183.63 304.41L181.83 303.66L180.07 302.84L178.35 301.97L176.67 301.03L175.03 300.04L173.43 298.98L171.89 297.88L170.38 296.72L168.93 295.5L167.53 294.24L166.18 292.93L164.89 291.57L163.65 290.16L162.47 288.71L161.35 287.22L160.28 285.68L159.28 284.11L158.35 282.5L157.48 280.85L156.67 279.16L155.94 277.44L155.28 275.69L154.68 273.91L154.17 272.1L153.72 270.26L153.36 268.4L153.07 266.51L152.86 264.59L152.73 262.66L152.69 260.71L152.73 258.75L152.86 256.82L153.07 254.9L153.36 253.02L153.72 251.15L154.17 249.31L154.68 247.5L155.28 245.72L155.94 243.97L156.67 242.25L157.48 240.56L158.35 238.91L159.28 237.3L160.28 235.73L161.35 234.19L162.47 232.7L163.65 231.25L164.89 229.84L166.18 228.48L167.53 227.17L168.93 225.91L170.38 224.69L171.89 223.53L173.43 222.43L174.22 221.91L174.53 219.76L175.26 215.82L176.15 211.93L177.19 208.1L178.37 204.33L179.7 200.63L180.95 197.53L180.08 196.69L179.23 195.79L178.42 194.84L177.66 193.86L176.95 192.84L176.28 191.79L175.66 190.7L175.09 189.58L174.58 188.43L174.12 187.26L173.72 186.05L173.37 184.82L173.09 183.56L172.86 182.28L172.7 180.99L172.6 179.67L172.56 178.33L172.6 177L172.7 175.68L172.86 174.38L173.09 173.1L173.37 171.85L173.72 170.62L174.12 169.41L174.58 168.23L175.09 167.08L175.66 165.96L176.28 164.88L176.95 163.82L177.66 162.8L178.42 161.82L179.23 160.88L180.08 159.98L180.97 159.12L181.9 158.3L182.87 157.53L183.87 156.81L184.91 156.13L185.99 155.51L187.09 154.93L188.23 154.41L189.39 153.95L190.58 153.54L191.8 153.19L193.04 152.9L194.3 152.67L195.59 152.51L196.89 152.41L198.21 152.37L199.52 152.41L200.83 152.51L202.11 152.67L203.37 152.9L204.61 153.19L205.83 153.54L207.02 153.95L208.18 154.41L209.32 154.93L210.42 155.51L211.5 156.13L212.46 156.76L214.69 155.07L217.88 152.85L221.15 150.74L224.51 148.76L227.96 146.91L231.48 145.19L235.08 143.59L238.75 142.14L242.49 140.82L246.29 139.65L250.16 138.62L254.09 137.74L258.07 137.02L262.1 136.45L266.19 136.04L270.32 135.79L274.49 135.71L278.66 135.79L282.79 136.04Z" id="dFXfhTy87"></path><radialGradient id="gradientdMPRptzgt" gradientUnits="userSpaceOnUse" cx="269.77" cy="237.49" r="216.5"><stop style="stop-color: #cdd3f0;stop-opacity: 1" offset="0%"></stop><stop style="stop-color: #5a64a1;stop-opacity: 1" offset="100%"></stop></radialGradient><path d="M250.87 209.65C236.15 225.76 220.54 228.39 204.06 217.56" id="e4nGZM8DNg"></path><path d="M322.15 206.46C308.18 223.22 292.71 226.56 275.75 216.48" id="a1KhZzqos"></path><path d="M303.33 262.31C284.96 257.18 259.67 263.8 227.46 282.18" id="a438sswH2C"></path><path d="M311.45 275.86C300.18 268.32 300.65 258.16 312.85 245.39" id="e68oSqAUl"></path></defs><g><g><use xlink:href="#dFXfhTy87" opacity="1" fill="url(#gradientdMPRptzgt)"></use><g><use xlink:href="#dFXfhTy87" opacity="1" fill-opacity="0" stroke="#13637b" stroke-width="7" stroke-opacity="1"></use></g></g><g><g><use xlink:href="#e4nGZM8DNg" opacity="1" fill-opacity="0" stroke="#000000" stroke-width="6" stroke-opacity="1"></use></g></g><g><g><use xlink:href="#a1KhZzqos" opacity="1" fill-opacity="0" stroke="#000000" stroke-width="6" stroke-opacity="1"></use></g></g><g><g><use xlink:href="#a438sswH2C" opacity="1" fill-opacity="0" stroke="#000000" stroke-width="6" stroke-opacity="1"></use></g></g><g><g><use xlink:href="#e68oSqAUl" opacity="1" fill-opacity="0" stroke="#000000" stroke-width="6" stroke-opacity="1"></use></g></g></g></svg>